<?xml version="1.0" encoding="UTF-8" standalone="no"?>
<!DOCTYPE svg PUBLIC "-//W3C//DTD SVG 1.1//EN" "http://www.w3.org/Graphics/SVG/1.1/DTD/svg11.dtd">
<svg aria-hidden="true" focusable="false" width="100%" height="100%" viewBox="324 256 430 430" version="1.1" xmlns="http://www.w3.org/2000/svg" xmlns:xlink="http://www.w3.org/1999/xlink" xml:space="preserve" xmlns:serif="http://www.serif.com/" style="fill-rule:evenodd;clip-rule:evenodd;stroke-linejoin:round;stroke-miterlimit:2;">
    <g>
        <g>
            <g>
                <path d="M689.5,256.1L389.5,256.1C353.9,256.1 324.9,285 324.9,320.7L324.9,620.7C324.9,656.3 353.8,685.3 389.5,685.3L689.5,685.3C725.1,685.3 754.1,656.4 754.1,620.7L754.1,320.7C754.1,284.9 725.2,256.1 689.5,256.1Z" style="fill:currentColor;fill-rule:nonzero;"/>
            </g>
        </g>
        <g>
            <path d="M482.1,527.9C482.9,526.3 483.6,524.7 483.5,522.9C483.4,521 482.4,519.2 480.9,518C479.4,516.8 477.4,516.3 475.5,516.4C474.7,516.4 473.9,516.6 473.2,516.9C471.9,517.5 471.1,518.7 470.4,519.9C469.7,521 469.1,522.2 468.4,523.3C468,524 467.7,524.7 467.6,525.4C467.3,526.8 467.8,528.3 468.5,529.5C470.6,533.1 475.1,535.5 478.7,532.6C479.8,531.7 480.6,530.6 481.3,529.4C481.6,528.9 481.8,528.4 482.1,527.9Z" style="fill:var(--color-accent);fill-rule:nonzero;"/>
            <path d="M498,533.5C498.3,533 498.6,532.5 498.9,532C499.9,530.2 500.7,528.2 500.3,526.2C499.7,523.5 497.1,521.7 494.5,520.9C493.2,520.5 491.8,520.3 490.6,520.7C488.9,521.3 487.9,522.9 487,524.5C485.3,527.4 483.6,530.2 481.9,533.1C480.8,534.9 479.8,536.8 479.9,538.8C480.2,543.6 486.8,547 490.7,544.1C492.3,543 493.3,541.3 494.4,539.6C495.5,537.6 496.7,535.5 498,533.5Z" style="fill:var(--color-accent);fill-rule:nonzero;"/>
            <path d="M526.2,543.9C525.4,542.4 524,541.1 522.5,540.4C520.4,539.4 517.7,539.3 515.8,540.8C514.9,541.5 514.3,542.5 513.7,543.5C512.5,545.5 511.3,547.5 510.1,549.5C509.6,550.3 509.2,551.1 508.9,551.9C508.5,553.4 508.9,555.1 509.8,556.5C511.8,559.5 516.4,561.4 519.7,559.2C520.6,558.6 521.3,557.6 521.9,556.7C523,555.1 524,553.4 525,551.7C525.9,550.2 526.8,548.5 526.8,546.7C526.9,545.8 526.6,544.8 526.2,543.9Z" style="fill:var(--color-accent);fill-rule:nonzero;"/>
            <path d="M511.7,542.1C513.1,539.9 514.5,537.4 513.9,534.8C513.5,532.9 512.1,531.4 510.5,530.3C508.3,528.9 505.1,528.3 503,530C502.1,530.7 501.6,531.6 501,532.6C499,535.9 497,539.3 495,542.6C494.4,543.6 493.8,544.6 493.6,545.8C492.6,551.2 499.7,556.1 504.2,552.9C505.9,551.7 507,549.9 508.1,548.1C508.6,547.3 509,546.6 509.5,545.8C510.3,544.5 511,543.3 511.7,542.1Z" style="fill:var(--color-accent);fill-rule:nonzero;"/>
            <path d="M552.1,531.2C551.9,531 551.7,530.9 551.6,530.8C551.7,530.9 551.9,531 552.1,531.2Z" style="fill:var(--color-accent);fill-rule:nonzero;"/>
            <path d="M642.5,447.4C642.7,444.3 642.8,440.9 642.5,437.8C642.1,433.3 640.7,429.1 637.2,426.4C634.4,424.3 630.7,423.7 627.2,423.1C622.9,422.4 618.6,421.8 614.3,421.1L614.3,383.1C614.3,342.3 581.2,309.3 540.5,309.3C499.7,309.3 466.7,342.4 466.7,383.1L466.7,412.6L491.1,408.6L491.1,382.3C491.1,355.3 513,333.4 540,333.4C567,333.4 588.9,355.3 588.9,382.3L588.9,417.2C579.1,415.7 569.4,414.2 559.6,412.7C553.1,411.7 546.5,410.7 539.9,410.7L539.1,410.7C532.5,410.7 525.9,411.7 519.4,412.7C496.9,416.1 474.4,419.6 451.8,423C448.3,423.5 444.6,424.1 441.8,426.3C438.3,429 436.9,433.1 436.5,437.7C436.2,440.9 436.3,444.2 436.5,447.3C436.6,449.4 436.7,451.5 436.8,453.6L436.8,455.1C436.9,456.7 436.9,460.3 436.9,464.7C436.7,488.5 434.4,512.4 440.3,535.3C448.7,568.2 474.4,596.1 506.5,607.1C517.1,610.7 528.3,612.5 539.6,612.5C550.8,612.5 562,610.8 572.7,607.1C604.8,596.1 630.6,568.1 638.9,535.3C646.1,506.8 640.9,476.7 642.5,447.4ZM625.6,450L625.6,456C625.6,456.7 625.5,457.3 625.5,458C625.4,459 625.4,459.9 625.4,460.9C614,462.8 597.9,459.6 597.9,459.6C589.5,457.8 581.2,456 572.8,454.2C567.5,453.1 562.2,451.9 556.9,450.8C553.4,450.1 549.9,449.4 546.3,449.6C542.6,449.9 539.1,451.1 535.7,452.3C531.5,453.8 527.2,455.3 523.9,458.3C521.3,460.6 519.5,463.6 517.7,466.5C513.8,473 509.9,479.5 506,485.9C505.4,486.9 504.8,487.9 504.9,489.1C505.3,493.5 515.4,490.4 517.6,489.4C521.1,487.8 524.2,485.4 526.9,482.7C527.5,479.5 529.2,476.6 531.7,474.6C535.1,471.9 539.9,471 544,472.5C548.2,474 551.4,477.9 552.4,482.2C560.9,489.9 571.2,495.5 582.5,495.9C583.5,495.9 584.6,495.9 585.4,496.6C586.2,497.2 586.4,498.7 585.6,499.2C585.3,499.4 584.8,499.4 584.4,499.4C582.6,499.4 580.8,499.3 579,499.2C588,506.7 597,514.2 605.9,521.7C606.3,522 606.7,522.4 607.3,522.4C607.8,522.4 608.3,522.2 608.7,521.9C613.4,519.2 618.2,516.5 622.9,513.7C623.2,513.6 623.4,513.4 623.6,513.2L625.4,512.1C625,518.6 624.1,525 622.5,531.3C615.5,558.7 594,582 567.2,591.2C558.3,594.2 549,595.7 539.6,595.7C530.2,595.7 520.9,594.3 512,591.2C485.2,582 463.7,558.7 456.7,531.3C456,528.5 455.4,525.7 455,522.9L456.3,524.1L456,513L467.7,519.7C469.3,516.1 473.1,513.6 477.1,513.6C481,513.6 484.8,516.1 486.4,519.7C489.2,517.4 493.2,516.7 496.5,517.9C499.9,519.1 502.6,522.1 503.3,525.6C509.9,524.3 517,529.5 517.7,536.2C522.4,536 527.2,539.1 528.8,543.5C530.5,548 528.9,553.4 525.1,556.3C525.1,556.3 527.1,558 527.3,558.1C528.1,558.7 528.8,559.3 529.6,559.8C531.2,560.9 532.8,561.9 534.5,562.9C537.2,564.4 540.4,565.9 543.6,565.9C546.1,565.9 548.8,564.5 549.6,562.1C550.8,558.3 546.9,555 543.7,552.7C540.5,550.4 537.5,547.8 534.7,545C534.2,544.5 533.7,543.9 533.9,543.3C534.2,542 536.3,542.6 537.3,543.4C541.5,546.9 545.6,550.4 549.8,553.9C554.3,557.6 559.5,561.6 565.3,560.8C569,560.3 572.6,556.7 571.6,553.1C571.1,551.2 569.5,549.8 567.9,548.6C561.1,543 554.3,537.4 547.4,531.8C546.8,531.3 546.2,530.7 546.2,529.9C546.2,529 547.3,528.4 548.2,528.5C549.1,528.6 549.9,529.2 550.6,529.8C551.4,530.4 552.1,531.1 552.9,531.7C552.6,531.5 552.3,531.2 551.9,531C552.3,531.3 552.8,531.6 553.3,532.1C558.3,536.2 563.2,540.2 568.2,544.3C572.1,547.4 576.3,550.7 581.2,551C586.2,551.3 591.6,546.8 590.3,542C589.6,539.6 587.6,537.9 585.7,536.4C576.3,528.9 567,521.4 557.6,514C557.1,513.6 556.5,513.1 556.4,512.4C556.3,511.4 557.4,510.7 558.4,510.8C559.4,510.9 560.2,511.5 560.9,512.2C561.3,512.5 561.6,512.8 562,513.1C571.1,520 580.1,527 589.2,533.9C592.5,536.4 596.4,539.1 600.8,538.9C604.7,538.7 609.7,535.7 608.9,531.2C608.8,530.8 608.7,530.4 608.5,530C607.8,528.4 606.5,527.2 605.2,526C594.7,516.5 584.2,507 572.1,499.7C565.5,495.7 558.2,492.3 552.3,487.5C552,489.7 551.1,491.7 549.9,493.6C549,495 547.9,496.2 546.5,497.3C546.1,497.6 545.6,498 545.5,498.5C545.4,498.8 545.5,499.1 545.6,499.4C546.6,503.2 547.6,507 548.5,510.8C548.8,512 549.1,513.2 549.2,514.4C549.2,514.7 549.2,515 549,515.2C548.8,515.4 548.5,515.4 548.3,515.4L537.8,515.4C537.8,515.4 530.5,515.4 529.8,515.1C529.6,515 529.5,514.9 529.5,514.8C529.4,514.6 529.5,514.3 529.5,514.1C530.7,509.2 532,504.3 533.2,499.4C533.3,499.2 533.3,498.9 533.3,498.6C533.2,498.1 532.8,497.8 532.3,497.5C529,495.1 526.8,491.3 526.3,487.2C525.4,488 524.5,488.8 523.5,489.6C519.2,493 514,495.6 508.6,495C505.2,494.6 501.6,492.4 501.3,489C501,486.1 503.2,483.6 505,481.3C509.2,475.8 511.9,469.2 515.6,463.3C519.3,457.4 524.8,452 531.6,450.9C523.5,448.1 514.6,449.6 506.4,452.1C498.2,454.7 490.4,458.3 482,460C482,460 464.2,461.7 453.6,453.8L454,450L453.9,447.9C454.5,445 455.7,442.3 458.1,440.5C460.5,438.7 463.5,438.2 466.4,437.8C485.2,434.9 504,432.1 522.8,429.2C528.3,428.4 533.7,427.5 539.3,427.5L539.9,427.5C545.4,427.5 550.9,428.4 556.4,429.2C575.2,432.1 594,434.9 612.8,437.8C615.7,438.2 618.8,438.7 621.1,440.5C623.4,442.2 624.6,444.8 625.2,447.6C625.4,448.4 625.5,449.2 625.6,450Z" style="fill:var(--color-accent);fill-rule:nonzero;"/>
        </g>
    </g>
</svg>
